# xmcd
#
# Track frame offsets:
# 150
# 7846
# 48470
# 78270
# 144721
# 193294
# 230306
#
# Disc length: 3620 seconds
#
# Revision: 0
# Processed by: cddbd v1.5.1PL0 Copyright (c) Steve Scherf et al.
# Submitted via: Audion 3.0.2 (http://www.panic.com/audion/)
#
DISCID=530e2207
DTITLE=maalem mahjoub and les gnawas de marrakech - maalem mahjoub and les gnawas de marrakech
DYEAR=1900
DGENRE=
TTITLE0=aada
TTITLE1=salat al nabi
TTITLE2=chalaba
TTITLE3=ftih rrauba
TTITLE4=gilali bouala
TTITLE5=mimouna - ghmami
TTITLE6=marhba - gnawi sidi mimoun
EXTD=
EXTT0=
EXTT1=
EXTT2=
EXTT3=
EXTT4=
EXTT5=
EXTT6=
PLAYORDER=
